<svg width="28" height="28" viewBox="0 0 28 28" fill="none" xmlns="http://www.w3.org/2000/svg">
<g clip-path="url(#clip0_57_424)">
<path d="M13.9998 0C6.26808 0 0.00012207 6.26814 0.00012207 13.9999C0.00012207 21.7314 6.26808 28 13.9998 28C21.7315 28 27.9999 21.7314 27.9999 13.9999C27.9999 6.26814 21.7315 0 13.9998 0ZM14.0001 4.91741L22.2847 10.0835H5.71545L14.0001 4.91741ZM22.3879 18.333H22.3871C22.3871 19.1616 21.7155 19.8331 20.887 19.8331H7.11313C6.2845 19.8331 5.61306 19.1615 5.61306 18.333V10.4122C5.61306 10.3245 5.62202 10.2393 5.63658 10.1556L13.5521 15.0914C13.5618 15.0975 13.5721 15.1016 13.5821 15.1072C13.5926 15.113 13.6032 15.1186 13.6139 15.1239C13.6698 15.1527 13.7274 15.176 13.7862 15.1912C13.7923 15.1929 13.7984 15.1936 13.8044 15.195C13.869 15.2102 13.9345 15.2197 13.9998 15.2197H14.0003C14.0007 15.2197 14.0012 15.2197 14.0012 15.2197C14.0665 15.2197 14.132 15.2105 14.1965 15.195C14.2026 15.1935 14.2087 15.1929 14.2147 15.1912C14.2735 15.176 14.3309 15.1527 14.3871 15.1239C14.3978 15.1186 14.4084 15.113 14.4189 15.1072C14.4288 15.1016 14.4392 15.0975 14.4489 15.0914L22.3644 10.1556C22.379 10.2393 22.3879 10.3244 22.3879 10.4122V18.333Z" fill="#10B981"/>
</g>
<defs>
<clipPath id="clip0_57_424">
<rect width="28" height="28" fill="white"/>
</clipPath>
</defs>
</svg>
